HIERARCHY
ROOT pelvis
{
  OFFSET 0 100 0
  CHANNELS 6 Xposition Yposition Zposition Zrotation Xrotation Yrotation
  JOINT pelvis_right_femur
  {
    OFFSET -10.78128 -3.44521 -0.5502486
    CHANNELS 3 Zrotation Xrotation Yrotation
    JOINT right_femur_tibia
    {
      OFFSET -0.8047443 -44.0398 -0.1307829
      CHANNELS 3 Zrotation Xrotation Yrotation
      JOINT right_tibia_foot
      {
        OFFSET 3.006224 -47.83518 -5
        CHANNELS 3 Zrotation Xrotation Yrotation
        End Site
        {
          OFFSET 0 -5 15
        }
      }
    }
  }
  JOINT pelvis_left_femur
  {
    OFFSET 10.78128 -3.44521 -0.5502486
    CHANNELS 3 Zrotation Xrotation Yrotation
    JOINT left_femur_tibia
    {
      OFFSET 0.8047443 -44.0398 -0.1307829
      CHANNELS 3 Zrotation Xrotation Yrotation
      JOINT left_tibia_foot
      {
        OFFSET -4.370144 -48.10324 -4.275266
        CHANNELS 3 Zrotation Xrotation Yrotation
        End Site
        {
          OFFSET 0 -5 15
        }
      }
    }
  }
  JOINT pelvis_spine1
  {
    OFFSET 0 6.468898 -3.129235
    CHANNELS 3 Zrotation Xrotation Yrotation
    JOINT spine1
    {
      OFFSET 0 23.15396 4.99043
      CHANNELS 3 Zrotation Xrotation Yrotation
      JOINT spine2
      {
        OFFSET 0 20.79997 -5.064912
        CHANNELS 3 Zrotation Xrotation Yrotation
        JOINT neck
        {
          OFFSET 0 14.38658 9.616178
          CHANNELS 3 Zrotation Xrotation Yrotation
          End Site
          {
            OFFSET 0 20 0
          }
        }
      }
      JOINT right_manubrium
      {
        OFFSET -5.722621 16.35077 3.967754
        CHANNELS 3 Zrotation Xrotation Yrotation
        JOINT right_clavicle
        {
          OFFSET -13.16364 1.694482 -4.693211
          CHANNELS 3 Zrotation Xrotation Yrotation
          JOINT right_humerus
          {
            OFFSET -28.5034 -0.3100689 -2.792744
            CHANNELS 3 Zrotation Xrotation Yrotation
            JOINT right_radius
            {
              OFFSET -25.15693 0.02248979 -1.271978
              CHANNELS 3 Zrotation Xrotation Yrotation
              End Site
              {
                OFFSET -15 0 0
              }
            }
          }
        }
      }
      JOINT left_manubrium
      {
        OFFSET 5.722621 16.35077 3.967754
        CHANNELS 3 Zrotation Xrotation Yrotation
        JOINT left_clavicle
        {
          OFFSET 13.16364 1.694482 -4.693211
          CHANNELS 3 Zrotation Xrotation Yrotation
          JOINT left_humerus
          {
            OFFSET 29.39168 -1.063119 -2.237045
            CHANNELS 3 Zrotation Xrotation Yrotation
            JOINT left_radius
            {
              OFFSET 24.59957 -0.9528479 0.9047498
              CHANNELS 3 Zrotation Xrotation Yrotation
              End Site
              {
                OFFSET 15 -0 -0
              }
            }
          }
        }
      }
    }
  }
}
MOTION
Frames: 19
Frame Time: 0.0416666666667
0 103.5113 0 1.625394 -3.38179 0.2310055 1.025611 -10.11932 6.623635 -0 41.00627 -0 -6.861604 -16.68319 -3.887493 -6.75405 12.53481 -24.45323 -0 6.112546 -0 -0.8916083 -19.14602 22.79589 -0.0570199 -1.829417 4.49537 -0.1253484 7.686716 -7.178343 1.732591 22.25828 8.091129 5.190355 -21.85336 8.946136 6.257798 -18.32828 10.22942 88.61466 35.50651 -24.54088 -0 0 17.12593 -8.740613 10.67573 2.542751 7.217351 -21.02793 -2.635899 -100.2638 41.79482 27.88431 0 0 -25.17249 -9.208813 17.69317 28.33919
0.07620927 103.9192 1.075963 1.012195 -2.512115 0.2320462 2.051534 -12.20975 8.303575 -0 42.67651 -0 -6.597532 -17.00701 -5.098682 -6.293248 12.46877 -24.54316 -0 6.575256 -0 -2.124442 -19.98611 22.9814 0.1185447 -1.674694 4.712265 -0.3153068 7.815368 -7.106033 1.723174 22.21141 8.159698 5.270922 -21.75796 8.913273 6.195627 -18.33092 10.21438 88.77746 36.05671 -24.38971 -0 0 16.88957 -9.214892 11.1343 2.633469 7.355891 -21.33286 -2.473662 -99.82538 41.39955 27.60979 0 0 -25.4506 -8.573767 17.7315 27.91045
0.1615917 103.9622 2.560966 0.09532582 -2.101168 0.1723777 3.436511 -17.93229 6.622501 -0 38.76281 -0 -7.543109 -13.92015 -4.098283 -5.542485 12.83105 -23.18439 -0 6.311905 -0 -1.549727 -21.25611 21.89486 -0.182639 -1.161777 4.105398 0.7014602 7.411555 -7.339514 1.410546 22.1176 8.194607 5.018635 -22.72934 8.766287 6.021982 -17.59203 10.57153 88.25557 36.03123 -23.52445 -0 0 15.19427 -8.997805 10.63516 3.676684 6.596437 -20.87798 -2.625284 -97.84859 39.60281 25.68913 0 0 -25.22797 -7.594427 16.88546 26.0077
0.2639854 103.7647 4.370777 -0.4485718 -1.077111 0.1226658 4.514808 -22.5201 6.374769 -0 35.21463 -0 -7.412211 -12.02564 -3.739046 -5.240225 12.91246 -22.26004 -0 6.038168 -0 -0.6480963 -22.20794 21.50086 -0.3449173 -0.8612365 3.748047 1.298391 7.214339 -7.489425 1.229348 22.03947 8.212424 4.874092 -23.28248 8.667199 5.929078 -17.14652 10.7936 87.98118 35.95186 -23.06584 -0 0 14.16406 -8.878925 10.3496 4.298493 6.17132 -20.64885 -2.726612 -96.66672 38.43749 24.51241 0 0 -25.13884 -6.95868 16.34775 24.81258
0.3979566 103.2968 6.590263 -0.845705 0.02566795 0.1194297 5.380753 -26.94314 6.046887 -0 30.88254 -0 -7.107468 -9.845573 -3.291694 -5.0624 13.086 -21.26756 -0 5.984247 -0 0.06635952 -23.21597 20.82792 -0.4498694 -0.5834376 3.407252 1.851509 7.052006 -7.644251 1.06973 21.92883 8.247918 4.757573 -23.8046 8.59584 5.848787 -16.71067 11.00006 87.79566 35.79136 -22.7619 -0 0 13.18309 -8.677755 10.06993 4.815107 5.82425 -20.48263 -2.837294 -95.58267 37.31412 23.38968 0 0 -25.19644 -6.324124 15.81853 23.66018
0.5626701 102.6046 9.264704 -1.081085 1.226035 0.2057922 6.040483 -30.77977 5.803931 -0 26.34815 -0 -6.643491 -7.768494 -2.898449 -5.038911 13.36981 -20.37389 -0 6.265058 -0 0.5789098 -24.12842 20.05372 -0.5393757 -0.3704754 3.114579 2.308679 6.924566 -7.782461 0.9426616 21.82899 8.274876 4.662872 -24.22986 8.537956 5.787808 -16.35361 11.16865 87.65398 35.60102 -22.55397 -0 0 12.39293 -8.50496 9.830274 5.232563 5.551806 -20.34892 -2.934785 -94.72597 36.38632 22.47154 0 0 -25.2438 -5.830285 15.37277 22.72432
0.7496718 101.7547 12.46646 -1.206172 2.396917 0.4183951 6.463434 -33.88898 5.398068 -0 21.67985 -0 -6.216635 -5.745431 -2.530744 -5.096125 13.87983 -19.46147 -0 7.143672 -0 0.5887315 -24.87713 18.91153 -0.6054271 -0.1963353 2.868548 2.686221 6.826474 -7.903716 0.8393316 21.7339 8.301325 4.589234 -24.58306 8.492474 5.737122 -16.0535 11.30783 87.55327 35.41847 -22.41081 -0 0 11.73145 -8.364678 9.639122 5.574784 5.341569 -20.25366 -3.015466 -94.01652 35.58858 21.69373 0 0 -25.30864 -5.405118 14.99014 21.92588
0.9368975 100.8702 16.27166 -1.28863 3.442286 0.7842305 6.694957 -35.91043 4.808555 -0 17.3408 -0 -5.963857 -3.976713 -2.248328 -5.160555 14.64991 -18.4635 -0 8.951925 -0 -0.1093858 -25.16848 17.2929 -0.6739035 -0.0647642 2.672787 2.984984 6.757084 -8.003174 0.7558943 21.66253 8.312728 4.525712 -24.85016 8.442484 5.698523 -15.82202 11.4209 87.46221 35.26771 -22.28091 -0 0 11.2115 -8.303858 9.497575 5.875636 5.169129 -20.17601 -3.077614 -93.45228 34.93065 21.07044 0 0 -25.31445 -5.075855 14.67927 21.28752
1.091394 100.1227 20.75406 -1.447793 4.230767 1.3034 6.904307 -36.435 4.160846 -0 14.00583 -0 -6.008993 -2.641575 -2.132143 -5.096657 15.57428 -17.26053 -0 12.14734 -0 -1.722211 -24.49683 15.11716 -0.7507019 0.02888989 2.541821 3.196608 6.726369 -8.073666 0.6902838 21.62433 8.302 4.468571 -25.01529 8.376153 5.672616 -15.66675 11.51089 87.36982 35.18508 -22.12814 -0 0 10.83017 -8.360758 9.420431 6.155014 5.024202 -20.11742 -3.117687 -93.01565 34.39775 20.6038 0 0 -25.23425 -4.823964 14.44312 20.80014
1.184389 99.69958 25.94529 -1.838106 4.596382 1.917603 7.387378 -35.12069 3.779363 -0 12.58324 -0 -6.427232 -1.872669 -2.236008 -4.726592 16.23272 -15.78811 -0 17.2371 -0 -4.166879 -22.17055 12.5857 -0.8490034 0.08555578 2.494678 3.308204 6.748967 -8.105847 0.6410523 21.63346 8.256572 4.411559 -25.05196 8.275965 5.661506 -15.6031 11.58105 87.25584 35.20965 -21.90214 -0 0 10.59667 -8.596183 9.427569 6.442515 4.89264 -20.0758 -3.131303 -92.69602 33.97553 20.30693 0 0 -25.01628 -4.63936 14.28637 20.46357
1.222998 99.72969 31.76884 -2.511277 4.358992 2.469482 8.24961 -31.94136 3.869285 -0 13.54001 -0 -7.186011 -1.729489 -2.482768 -3.963126 15.83391 -14.13181 -0 24.59796 -0 -6.853905 -17.81387 10.27075 -0.9743908 0.1108006 2.559108 3.300041 6.844051 -8.086218 0.6081491 21.69849 8.167488 4.352033 -24.93209 8.127139 5.663947 -15.64889 11.63377 87.09728 35.38867 -21.5413 -0 0 10.52095 -9.0888 9.555226 6.770941 4.766586 -20.05696 -3.108885 -92.47422 33.6276 20.18999 0 0 -24.62135 -4.485526 14.2077 20.2556
1.26396 100.2342 37.99211 -3.180092 3.415519 2.714094 9.029873 -27.31245 4.122316 -0 15.91276 -0 -8.075687 -2.332123 -2.674376 -3.065219 13.59472 -12.52441 -0 34.17708 -0 -8.814974 -12.21802 8.846908 -1.127732 0.1145404 2.763328 3.154074 7.02534 -7.998197 0.5920117 21.8187 8.032007 4.290152 -24.63812 7.921796 5.671539 -15.82103 11.67082 86.85588 35.75761 -20.9656 -0 0 10.61757 -9.933333 9.849102 7.18356 4.642126 -20.06428 -3.036005 -92.32229 33.29251 20.25556 0 0 -24.01785 -4.310103 14.19277 20.12948
1.361319 101.162 44.29604 -3.274137 1.836775 2.477566 9.013228 -21.85972 3.995143 -0 17.52127 -0 -8.717427 -3.713991 -2.744256 -2.581486 9.482526 -11.1044 -0 45.0651 -0 -9.387325 -7.327114 8.591385 -1.301384 0.1103196 3.122522 2.865816 7.286859 -7.825797 0.5929154 21.97687 7.86059 4.230131 -24.18305 7.669101 5.665164 -16.12627 11.6924 86.47727 36.30889 -20.09214 -0 0 10.9055 -11.20768 10.34528 7.726774 4.522077 -20.09032 -2.897192 -92.20873 32.89334 20.49298 0 0 -23.20106 -4.059184 14.20791 20.01571
1.500211 102.4191 50.42678 -2.532604 -0.13971 1.839343 8.083831 -16.03826 3.470259 -0 17.05358 -0 -8.786581 -5.428276 -2.830349 -2.697691 4.246775 -9.806969 -0 55.15592 -0 -8.771454 -4.59791 9.363736 -1.485327 0.1086202 3.621748 2.457706 7.593767 -7.562133 0.6095273 22.14255 7.675499 4.176423 -23.62 7.396694 5.619556 -16.55373 11.69764 85.90133 36.96599 -18.86632 -0 0 11.40439 -12.9278 11.03803 8.437449 4.41077 -20.10611 -2.68614 -92.11352 32.37137 20.87964 0 0 -22.19347 -3.715344 14.20466 19.85183
1.618163 103.8246 56.26023 -1.308783 -2.155018 1.050163 6.769031 -10.1132 2.965054 -0 15.0018 -0 -8.270035 -6.932868 -2.964603 -2.975643 -1.437881 -8.57195 -0 61.82328 -0 -7.750884 -3.917702 10.8449 -1.675556 0.113032 4.216116 1.97761 7.895592 -7.21561 0.6385251 22.28447 7.500283 4.128807 -23.02436 7.138368 5.515423 -17.07631 11.68706 85.08577 37.60307 -17.28597 -0 0 12.12085 -15.03362 11.87113 9.331607 4.305494 -20.0669 -2.413152 -92.03135 31.70684 21.38347 0 0 -21.03145 -3.310903 14.13396 19.60872
1.680846 105.1066 61.78069 -0.1391361 -3.80758 0.310172 5.588358 -4.373167 2.707777 -0 12.42203 -0 -7.393335 -8.166136 -2.980085 -2.890981 -7.295636 -7.405427 -0 63.3686 -0 -6.943965 -4.378519 12.6276 -1.875769 0.1233216 4.851257 1.481327 8.152664 -6.806543 0.6764302 22.38056 7.349294 4.081435 -22.46129 6.918932 5.348607 -17.66137 11.66512 84.02233 38.09305 -15.39582 -0 0 13.03969 -17.4214 12.76417 10.40354 4.192883 -19.93047 -2.103233 -91.96 30.90522 21.96656 0 0 -19.75127 -2.901316 13.95635 19.28901
1.712828 105.9819 67.05769 0.6414577 -4.798528 -0.3026466 4.786041 0.8437341 2.634633 -0 10.01498 -0 -6.385261 -9.389549 -2.710352 -2.200116 -13.12844 -6.25734 -0 59.60002 -0 -6.516024 -5.184014 14.34161 -2.090056 0.1390987 5.482588 1.015083 8.350579 -6.35895 0.7222962 22.41866 7.226405 4.026772 -21.96754 6.751077 5.13058 -18.27983 11.63973 82.7425 38.3378 -13.27666 -0 0 14.12921 -19.97143 13.64141 11.62362 4.055384 -19.67151 -1.789691 -91.89581 29.98221 22.59361 0 0 -18.39301 -2.536028 13.64592 18.91504
1.77279 106.2482 72.21885 0.9239894 -5.016629 -0.787161 4.412797 5.263717 2.595588 -0 8.134862 -0 -5.373201 -10.88167 -2.119648 -0.9147848 -18.6206 -5.022221 -0 51.49528 -0 -6.344989 -5.85292 15.76336 -2.316831 0.1598268 6.080586 0.608185 8.498719 -5.895941 0.7786852 22.39485 7.128605 3.959263 -21.55083 6.639504 4.884747 -18.9083 11.61978 81.31835 38.27719 -11.0443 -0 0 15.34863 -22.55347 14.44501 12.93398 3.879744 -19.28623 -1.508936 -91.83846 28.96601 23.23821 0 0 -17.00849 -2.251108 13.19402 18.52487
1.919482 105.8425 77.41628 0.7521238 -4.541033 -1.179256 4.39058 8.772523 2.489676 -0 6.981456 -0 -4.397596 -12.79358 -1.305195 0.760862 -23.36191 -3.661736 -0 40.79662 -0 -6.221565 -6.157496 16.8258 -2.547255 0.1839208 6.627716 0.2729637 8.622379 -5.439219 0.8504163 22.31298 7.049808 3.876872 -21.19653 6.58456 4.641555 -19.52643 11.61281 79.85741 37.89492 -8.846255 -0 0 16.64777 -25.0292 15.14066 14.25044 3.66266 -18.79283 -1.295888 -91.79234 27.90198 23.88006 0 0 -15.66362 -2.069581 12.61302 18.16809
